<svg width="152" height="38" viewBox="0 0 152 38" fill="none" xmlns="http://www.w3.org/2000/svg">
<g clip-path="url(#clip0_222_1361)">
<path d="M10.9814 12.3L13.1814 4.09998H21.0814L19.0814 12.3H10.9814Z" fill="#F7D504"/>
<path d="M21.083 4.1L22.283 0H26.183L25.183 4.1H21.083Z" fill="#F7D504"/>
<path d="M14.2822 28.2L18.6822 12.3H34.0822L30.2822 28.2H14.2822Z" fill="#F7D504"/>
<path d="M1.08301 38.5L4.18301 27.5H14.683L12.083 38.5H1.08301Z" fill="#F7D504"/>
<path d="M58.883 38C56.483 38 54.583 37.6 52.883 36.9C51.283 36.2 50.083 35.1 49.283 33.9C48.483 32.6 48.083 31.1 48.083 29.5H54.383C54.383 30.1 54.583 30.7 54.883 31.2C55.183 31.7 55.683 32.1 56.383 32.4C57.083 32.7 57.883 32.8 58.983 32.8C59.883 32.8 60.683 32.7 61.283 32.5C61.883 32.3 62.383 31.9 62.783 31.5C63.083 31.1 63.283 30.6 63.283 30C63.283 29.3 62.983 28.7 62.383 28.3C61.783 27.9 60.683 27.6 59.183 27.5L57.583 27.4C54.983 27.2 52.883 26.3 51.283 24.9C49.683 23.5 48.983 21.6 48.983 19.3C48.983 17.6 49.383 16.2 50.183 15C50.983 13.8 52.083 12.9 53.483 12.3C54.883 11.7 56.583 11.4 58.483 11.4C60.583 11.4 62.383 11.7 63.783 12.4C65.183 13.1 66.383 14.1 67.083 15.3C67.783 16.5 68.183 18 68.183 19.7H61.883C61.883 19.1 61.783 18.6 61.483 18.2C61.183 17.7 60.783 17.4 60.283 17.1C59.783 16.8 59.083 16.7 58.383 16.7C57.683 16.7 57.083 16.8 56.583 17C56.083 17.2 55.783 17.5 55.483 17.9C55.283 18.3 55.083 18.7 55.083 19.2C55.083 19.8 55.283 20.4 55.783 20.9C56.183 21.4 56.983 21.6 58.083 21.7L59.683 21.8C61.583 22 63.283 22.4 64.683 23C66.183 23.7 67.283 24.6 68.083 25.7C68.883 26.8 69.383 28.2 69.383 29.9C69.383 31.5 68.983 33 68.083 34.2C67.283 35.4 66.083 36.4 64.483 37C62.983 37.7 61.083 38 58.883 38Z" fill="white"/>
<path d="M72.7822 37.3V11.9H79.0822V37.3H72.7822ZM78.3822 17.2V11.9H88.8822V17.2H78.3822ZM78.3822 27V21.7H88.3822V27H78.3822ZM78.3822 37.3V32H89.0822V37.3H78.3822Z" fill="white"/>
<path d="M93.3838 37.3V11.9H103.984L112.384 32.1H113.584L112.884 32.7V11.9H118.884V37.3H108.184L99.7838 17.1H98.5838L99.2838 16.5V37.3H93.3838Z" fill="white"/>
<path d="M121.782 37.3L129.882 11.9H140.282L148.682 37.3H141.982L135.482 16.5L137.282 17.2H132.682L134.582 16.5L128.182 37.3H121.782ZM128.482 31.4L130.382 26.1H139.982L141.882 31.4H128.482Z" fill="white"/>
</g>
<defs>
<clipPath id="clip0_222_1361">
<rect width="151" height="38" fill="white" transform="translate(0.833008)"/>
</clipPath>
</defs>
</svg>
