<svg xmlns="http://www.w3.org/2000/svg" width="140" height="35" viewBox="0 0 140 35" fill="none">
<path d="M0 34.5L1.7 28.5H7.7L6.1 34.5H0Z" fill="url(#paint0_linear_5_39)"/>
<path d="M7.5 28.6L9.9 20.2H18.3L16 28.6H7.5Z" fill="url(#paint1_linear_5_39)"/>
<path d="M18.1992 20.2001L19.8992 14.1001H25.8992L24.2992 20.2001H18.1992Z" fill="url(#paint2_linear_5_39)"/>
<path d="M15.5996 14.2L16.8996 9.80005H21.2996L20.0996 14.2H15.5996Z" fill="url(#paint3_linear_5_39)"/>
<path d="M23.4004 7.30005L24.6004 2.80005H29.0004L27.8004 7.30005H23.4004Z" fill="url(#paint4_linear_5_39)"/>
<path d="M5.59961 20.1999L6.79961 15.8999H10.9996L9.89961 20.1999H5.59961Z" fill="url(#paint5_linear_5_39)"/>
<path d="M13.9004 10L14.7004 7H17.7004L16.9004 10H13.9004Z" fill="url(#paint6_linear_5_39)"/>
<path d="M28.6992 3L29.4992 0H32.5992L31.6992 3H28.6992Z" fill="url(#paint7_linear_5_39)"/>
<path d="M25.9004 14.2L26.7004 11.2H29.7004L28.9004 14.2H25.9004Z" fill="url(#paint8_linear_5_39)"/>
<path d="M38.5992 24.85C38.5992 24.65 38.7992 24.45 38.9992 24.45H57.4992C58.7992 24.45 59.7992 23.85 60.0992 22.65C60.5992 20.75 58.9992 18.95 57.0992 18.95H45.2992C41.8992 18.95 39.3992 16.85 38.7992 13.65C38.0992 9.44995 41.4992 5.64995 45.7992 5.64995H63.7992C63.9992 5.64995 64.1992 5.84995 64.1992 6.04995V9.14995C64.1992 9.34995 63.9992 9.54995 63.7992 9.54995H45.6992C43.8992 9.54995 42.3992 11.05 42.5992 12.85C42.7992 14.25 43.7992 15.05 45.2992 15.05H56.9992C61.2992 15.05 64.7992 18.85 63.9992 23.15C63.3992 26.35 60.8992 28.45 57.4992 28.45H38.9992C38.7992 28.45 38.5992 28.25 38.5992 28.05V24.85Z" fill="#EDEDED"/>
<path d="M70.0988 28.35C68.8988 28.35 66.1988 28.1499 66.1988 24.5499V9.54995C66.1988 5.84995 68.9988 5.54995 70.0988 5.54995H88.8988C89.0988 5.54995 89.2988 5.74995 89.2988 5.94995V9.14995C89.2988 9.34995 89.0988 9.54995 88.8988 9.54995H70.4988C70.2988 9.54995 70.0988 9.74995 70.0988 9.94995V14.75C70.0988 14.95 70.2988 15.15 70.4988 15.15H88.8988C89.0988 15.15 89.2988 15.3499 89.2988 15.5499V18.65C89.2988 18.85 89.0988 19.0499 88.8988 19.0499H70.4988C70.2988 19.0499 70.0988 19.2499 70.0988 19.4499V24.15C70.0988 24.35 70.2988 24.5499 70.4988 24.5499H88.8988C89.0988 24.5499 89.2988 24.7499 89.2988 24.9499V28.0499C89.2988 28.2499 89.0988 28.4499 88.8988 28.4499H70.0988V28.35Z" fill="#EDEDED"/>
<path d="M113.998 5.95005C114.198 5.95005 114.398 6.15005 114.398 6.35005V25.25C114.398 27.65 113.198 28.95 111.698 28.95C110.798 28.95 109.698 28.45 108.698 27.25L95.8984 12.05C95.6984 11.75 95.1984 11.95 95.1984 12.25V28.25C95.1984 28.45 94.9984 28.65 94.7984 28.65H91.6984C91.4984 28.65 91.2984 28.45 91.2984 28.25V9.35005C91.2984 6.95005 92.4984 5.65005 93.9984 5.65005C94.8984 5.65005 95.9984 6.15005 96.9984 7.35005L109.898 22.65C110.098 22.95 110.598 22.75 110.598 22.45V6.45005C110.598 6.25005 110.798 6.05005 110.998 6.05005H113.998V5.95005Z" fill="#EDEDED"/>
<path d="M139.298 28.65H135.098C134.998 28.65 134.898 28.65 134.798 28.55L120.898 12.05C120.698 11.75 120.198 11.95 120.198 12.25V28.25C120.198 28.45 119.998 28.65 119.798 28.65H116.698C116.498 28.65 116.298 28.45 116.298 28.25V9.35005C116.298 6.95005 117.498 5.65005 118.998 5.65005C119.898 5.65005 120.998 6.15005 121.998 7.35005L139.498 28.15C139.798 28.35 139.598 28.65 139.298 28.65Z" fill="#EDEDED"/>
<rect x="130.119" y="17.9301" width="3.96289" height="10.4668" transform="rotate(90 130.119 17.9301)" fill="#EDEDED"/>
<defs>
<linearGradient id="paint0_linear_5_39" x1="0" y1="31.4812" x2="7.7171" y2="31.4812" gradientUnits="userSpaceOnUse">
<stop offset="5.13517e-07" stop-color="#FAB83E"/>
<stop offset="1" stop-color="#F9E633"/>
</linearGradient>
<linearGradient id="paint1_linear_5_39" x1="7.5304" y1="24.3917" x2="18.3264" y2="24.3917" gradientUnits="userSpaceOnUse">
<stop offset="5.13517e-07" stop-color="#FAB83E"/>
<stop offset="1" stop-color="#F9E633"/>
</linearGradient>
<linearGradient id="paint2_linear_5_39" x1="18.2219" y1="17.1242" x2="25.9346" y2="17.1242" gradientUnits="userSpaceOnUse">
<stop offset="5.13517e-07" stop-color="#FAB83E"/>
<stop offset="1" stop-color="#F9E633"/>
</linearGradient>
<linearGradient id="paint3_linear_5_39" x1="15.6412" y1="12.0274" x2="21.2845" y2="12.0274" gradientUnits="userSpaceOnUse">
<stop offset="5.13517e-07" stop-color="#FAB83E"/>
<stop offset="1" stop-color="#F9E633"/>
</linearGradient>
<linearGradient id="paint4_linear_5_39" x1="23.3591" y1="5.05715" x2="29.0024" y2="5.05715" gradientUnits="userSpaceOnUse">
<stop offset="5.13517e-07" stop-color="#FAB83E"/>
<stop offset="1" stop-color="#F9E633"/>
</linearGradient>
<linearGradient id="paint5_linear_5_39" x1="5.63961" y1="18.0342" x2="11.0333" y2="18.0342" gradientUnits="userSpaceOnUse">
<stop offset="5.13517e-07" stop-color="#FAB83E"/>
<stop offset="1" stop-color="#F9E633"/>
</linearGradient>
<linearGradient id="paint6_linear_5_39" x1="13.8995" y1="8.5197" x2="17.7416" y2="8.5197" gradientUnits="userSpaceOnUse">
<stop offset="5.13517e-07" stop-color="#FAB83E"/>
<stop offset="1" stop-color="#F9E633"/>
</linearGradient>
<linearGradient id="paint7_linear_5_39" x1="28.7101" y1="1.5079" x2="32.5522" y2="1.5079" gradientUnits="userSpaceOnUse">
<stop offset="5.13517e-07" stop-color="#FAB83E"/>
<stop offset="1" stop-color="#F9E633"/>
</linearGradient>
<linearGradient id="paint8_linear_5_39" x1="25.8693" y1="12.7343" x2="29.7114" y2="12.7343" gradientUnits="userSpaceOnUse">
<stop offset="5.13517e-07" stop-color="#FAB83E"/>
<stop offset="1" stop-color="#F9E633"/>
</linearGradient>
</defs>
</svg>