<?xml version="1.0" encoding="UTF-8"?>
<svg id="Layer_2" data-name="Layer 2" xmlns="http://www.w3.org/2000/svg" viewBox="0 0 388.96 412.34">
  <defs>
    <style>
      .cls-1 {
        fill: #F7D504;
      }
    </style>
  </defs>
  <g id="Layer_1-2" data-name="Layer 1">
    <g>
      <polygon class="cls-1" points="0 412.34 20.08 339.96 92.21 339.96 72.63 412.34 0 412.34"/>
      <polygon class="cls-1" points="89.98 342.07 118.06 240.82 218.97 240.82 191.58 342.07 89.98 342.07"/>
      <polygon class="cls-1" points="217.73 240.77 237.8 168.44 309.89 168.44 290.32 240.77 217.73 240.77"/>
      <polygon class="cls-1" points="186.89 170.17 201.58 117.24 254.32 117.24 240 170.17 186.89 170.17"/>
      <polygon class="cls-1" points="279.1 86.89 293.78 33.96 346.53 33.96 332.21 86.89 279.1 86.89"/>
      <polygon class="cls-1" points="67.39 240.77 81.42 190.19 131.84 190.19 118.15 240.77 67.39 240.77"/>
      <polygon class="cls-1" points="166.07 119.81 176.07 83.78 211.98 83.78 202.23 119.81 166.07 119.81"/>
      <polygon class="cls-1" points="343.05 36.03 353.05 0 388.96 0 379.21 36.03 343.05 36.03"/>
      <polygon class="cls-1" points="309.09 170.17 319.09 134.14 355 134.14 345.25 170.17 309.09 170.17"/>
    </g>
  </g>
</svg>